<mxfile host="app.diagrams.net" agent="Mozilla/5.0 (Macintosh; Intel Mac OS X 10_15_7) AppleWebKit/537.36 (KHTML, like Gecko) Chrome/128.0.0.0 Safari/537.36" version="24.7.10">
  <diagram name="第 1 页" id="rqZZq5walOISwv6bHdcP">
    <mxGraphModel dx="2160" dy="1014" grid="1" gridSize="10" guides="1" tooltips="1" connect="1" arrows="1" fold="1" page="1" pageScale="1" pageWidth="827" pageHeight="1169" math="0" shadow="0">
      <root>
        <mxCell id="0" />
        <mxCell id="1" parent="0" />
        <mxCell id="IuRhXJj4qnXTzcQBlqx_-1" value="&#xa;&#xa;&#xa;6&#xa;&#xa;编码维护&#xa;" style="swimlane;fontStyle=0;childLayout=stackLayout;horizontal=1;startSize=20;fillColor=#ffffff;horizontalStack=0;resizeParent=1;resizeParentMax=0;resizeLast=0;collapsible=0;marginBottom=0;swimlaneFillColor=#ffffff;rounded=1;" vertex="1" parent="1">
          <mxGeometry x="550" y="160" width="100" height="50" as="geometry" />
        </mxCell>
        <mxCell id="IuRhXJj4qnXTzcQBlqx_-2" value="&#xa;&#xa;&#xa;4&#xa;&#xa;成绩管理&#xa;" style="swimlane;fontStyle=0;childLayout=stackLayout;horizontal=1;startSize=20;fillColor=#ffffff;horizontalStack=0;resizeParent=1;resizeParentMax=0;resizeLast=0;collapsible=0;marginBottom=0;swimlaneFillColor=#ffffff;rounded=1;" vertex="1" parent="1">
          <mxGeometry x="580" y="430" width="100" height="50" as="geometry" />
        </mxCell>
        <mxCell id="IuRhXJj4qnXTzcQBlqx_-3" value="&#xa;&#xa;&#xa;5&#xa;&#xa;授课管理&#xa;" style="swimlane;fontStyle=0;childLayout=stackLayout;horizontal=1;startSize=20;fillColor=#ffffff;horizontalStack=0;resizeParent=1;resizeParentMax=0;resizeLast=0;collapsible=0;marginBottom=0;swimlaneFillColor=#ffffff;rounded=1;" vertex="1" parent="1">
          <mxGeometry x="110" y="430" width="100" height="50" as="geometry" />
        </mxCell>
        <mxCell id="IuRhXJj4qnXTzcQBlqx_-5" value="&#xa;&#xa;&#xa;1&#xa;&#xa;学生管理&#xa;" style="swimlane;fontStyle=0;childLayout=stackLayout;horizontal=1;startSize=20;fillColor=#ffffff;horizontalStack=0;resizeParent=1;resizeParentMax=0;resizeLast=0;collapsible=0;marginBottom=0;swimlaneFillColor=#ffffff;rounded=1;" vertex="1" parent="1">
          <mxGeometry x="230" y="430" width="100" height="50" as="geometry" />
        </mxCell>
        <mxCell id="IuRhXJj4qnXTzcQBlqx_-6" value="&#xa;&#xa;&#xa;&#xa;2&#xa;&#xa;课程管理&#xa;&#xa;" style="swimlane;fontStyle=0;childLayout=stackLayout;horizontal=1;startSize=20;fillColor=#ffffff;horizontalStack=0;resizeParent=1;resizeParentMax=0;resizeLast=0;collapsible=0;marginBottom=0;swimlaneFillColor=#ffffff;rounded=1;" vertex="1" parent="1">
          <mxGeometry x="340" y="430" width="100" height="50" as="geometry" />
        </mxCell>
        <mxCell id="IuRhXJj4qnXTzcQBlqx_-4" value="&#xa;&#xa;3&#xa;&#xa;教师管理" style="swimlane;fontStyle=0;childLayout=stackLayout;horizontal=1;startSize=20;fillColor=#ffffff;horizontalStack=0;resizeParent=1;resizeParentMax=0;resizeLast=0;collapsible=0;marginBottom=0;swimlaneFillColor=#ffffff;rounded=1;" vertex="1" parent="1">
          <mxGeometry x="460" y="430" width="100" height="50" as="geometry" />
        </mxCell>
        <mxCell id="IuRhXJj4qnXTzcQBlqx_-8" value="管理人员" style="html=1;dashed=0;whiteSpace=wrap;" vertex="1" parent="1">
          <mxGeometry x="400" y="260" width="100" height="50" as="geometry" />
        </mxCell>
        <mxCell id="IuRhXJj4qnXTzcQBlqx_-9" value="&amp;nbsp; &amp;nbsp; &amp;nbsp; &amp;nbsp; 教学计划" style="html=1;dashed=0;whiteSpace=wrap;shape=mxgraph.dfd.dataStoreID;align=left;spacingLeft=3;points=[[0,0],[0.5,0],[1,0],[0,0.5],[1,0.5],[0,1],[0.5,1],[1,1]];" vertex="1" parent="1">
          <mxGeometry x="110" y="570" width="100" height="30" as="geometry" />
        </mxCell>
        <mxCell id="IuRhXJj4qnXTzcQBlqx_-10" value="&amp;nbsp; &amp;nbsp; &amp;nbsp; &amp;nbsp; 学生基本信息" style="html=1;dashed=0;whiteSpace=wrap;shape=mxgraph.dfd.dataStoreID;align=left;spacingLeft=3;points=[[0,0],[0.5,0],[1,0],[0,0.5],[1,0.5],[0,1],[0.5,1],[1,1]];" vertex="1" parent="1">
          <mxGeometry x="220" y="570" width="120" height="30" as="geometry" />
        </mxCell>
        <mxCell id="IuRhXJj4qnXTzcQBlqx_-11" value="&amp;nbsp; &amp;nbsp; &amp;nbsp; &amp;nbsp; 课程信息" style="html=1;dashed=0;whiteSpace=wrap;shape=mxgraph.dfd.dataStoreID;align=left;spacingLeft=3;points=[[0,0],[0.5,0],[1,0],[0,0.5],[1,0.5],[0,1],[0.5,1],[1,1]];" vertex="1" parent="1">
          <mxGeometry x="350" y="570" width="100" height="30" as="geometry" />
        </mxCell>
        <mxCell id="IuRhXJj4qnXTzcQBlqx_-12" value="&amp;nbsp; &amp;nbsp; &amp;nbsp; &amp;nbsp; 教师信息" style="html=1;dashed=0;whiteSpace=wrap;shape=mxgraph.dfd.dataStoreID;align=left;spacingLeft=3;points=[[0,0],[0.5,0],[1,0],[0,0.5],[1,0.5],[0,1],[0.5,1],[1,1]];" vertex="1" parent="1">
          <mxGeometry x="460" y="570" width="100" height="30" as="geometry" />
        </mxCell>
        <mxCell id="IuRhXJj4qnXTzcQBlqx_-13" value="&amp;nbsp; &amp;nbsp; &amp;nbsp; &amp;nbsp; 考试成绩" style="html=1;dashed=0;whiteSpace=wrap;shape=mxgraph.dfd.dataStoreID;align=left;spacingLeft=3;points=[[0,0],[0.5,0],[1,0],[0,0.5],[1,0.5],[0,1],[0.5,1],[1,1]];" vertex="1" parent="1">
          <mxGeometry x="580" y="570" width="100" height="30" as="geometry" />
        </mxCell>
        <mxCell id="IuRhXJj4qnXTzcQBlqx_-14" value="&amp;nbsp; &amp;nbsp; &amp;nbsp; &amp;nbsp; 编码" style="html=1;dashed=0;whiteSpace=wrap;shape=mxgraph.dfd.dataStoreID;align=left;spacingLeft=3;points=[[0,0],[0.5,0],[1,0],[0,0.5],[1,0.5],[0,1],[0.5,1],[1,1]];" vertex="1" parent="1">
          <mxGeometry x="680" y="250" width="100" height="30" as="geometry" />
        </mxCell>
        <mxCell id="IuRhXJj4qnXTzcQBlqx_-16" value="教师" style="html=1;dashed=0;whiteSpace=wrap;" vertex="1" parent="1">
          <mxGeometry x="650" y="340" width="80" height="30" as="geometry" />
        </mxCell>
        <mxCell id="IuRhXJj4qnXTzcQBlqx_-17" value="学生" style="html=1;dashed=0;whiteSpace=wrap;" vertex="1" parent="1">
          <mxGeometry x="747" y="339" width="80" height="30" as="geometry" />
        </mxCell>
        <mxCell id="IuRhXJj4qnXTzcQBlqx_-18" value="" style="endArrow=classic;html=1;rounded=0;exitX=0;exitY=0.5;exitDx=0;exitDy=0;entryX=0.75;entryY=0;entryDx=0;entryDy=0;" edge="1" parent="1" source="IuRhXJj4qnXTzcQBlqx_-8" target="IuRhXJj4qnXTzcQBlqx_-3">
          <mxGeometry width="50" height="50" relative="1" as="geometry">
            <mxPoint x="360" y="420" as="sourcePoint" />
            <mxPoint x="270" y="320" as="targetPoint" />
          </mxGeometry>
        </mxCell>
        <mxCell id="IuRhXJj4qnXTzcQBlqx_-19" value="教学计划信息" style="edgeLabel;html=1;align=center;verticalAlign=middle;resizable=0;points=[];" vertex="1" connectable="0" parent="IuRhXJj4qnXTzcQBlqx_-18">
          <mxGeometry x="0.0013" relative="1" as="geometry">
            <mxPoint as="offset" />
          </mxGeometry>
        </mxCell>
        <mxCell id="IuRhXJj4qnXTzcQBlqx_-22" value="" style="endArrow=classic;html=1;rounded=0;exitX=0;exitY=0.5;exitDx=0;exitDy=0;entryX=0.382;entryY=0.053;entryDx=0;entryDy=0;entryPerimeter=0;" edge="1" parent="1" source="IuRhXJj4qnXTzcQBlqx_-8" target="IuRhXJj4qnXTzcQBlqx_-5">
          <mxGeometry width="50" height="50" relative="1" as="geometry">
            <mxPoint x="410" y="295" as="sourcePoint" />
            <mxPoint x="195" y="440" as="targetPoint" />
          </mxGeometry>
        </mxCell>
        <mxCell id="IuRhXJj4qnXTzcQBlqx_-23" value="学生基本信息" style="edgeLabel;html=1;align=center;verticalAlign=middle;resizable=0;points=[];" vertex="1" connectable="0" parent="IuRhXJj4qnXTzcQBlqx_-22">
          <mxGeometry x="0.0013" relative="1" as="geometry">
            <mxPoint x="-4" y="11" as="offset" />
          </mxGeometry>
        </mxCell>
        <mxCell id="IuRhXJj4qnXTzcQBlqx_-26" value="" style="endArrow=classic;html=1;rounded=0;exitX=0.5;exitY=0;exitDx=0;exitDy=0;entryX=0;entryY=1;entryDx=0;entryDy=0;" edge="1" parent="1" source="IuRhXJj4qnXTzcQBlqx_-5" target="IuRhXJj4qnXTzcQBlqx_-8">
          <mxGeometry width="50" height="50" relative="1" as="geometry">
            <mxPoint x="330" y="420" as="sourcePoint" />
            <mxPoint x="380" y="370" as="targetPoint" />
          </mxGeometry>
        </mxCell>
        <mxCell id="IuRhXJj4qnXTzcQBlqx_-27" value="学生基本情况汇总报表" style="edgeLabel;html=1;align=center;verticalAlign=middle;resizable=0;points=[];" vertex="1" connectable="0" parent="IuRhXJj4qnXTzcQBlqx_-26">
          <mxGeometry x="-0.259" y="-1" relative="1" as="geometry">
            <mxPoint y="-1" as="offset" />
          </mxGeometry>
        </mxCell>
        <mxCell id="IuRhXJj4qnXTzcQBlqx_-28" value="" style="endArrow=classic;html=1;rounded=0;entryX=0.5;entryY=0;entryDx=0;entryDy=0;" edge="1" parent="1" source="IuRhXJj4qnXTzcQBlqx_-8" target="IuRhXJj4qnXTzcQBlqx_-6">
          <mxGeometry width="50" height="50" relative="1" as="geometry">
            <mxPoint x="390" y="420" as="sourcePoint" />
            <mxPoint x="440" y="370" as="targetPoint" />
          </mxGeometry>
        </mxCell>
        <mxCell id="IuRhXJj4qnXTzcQBlqx_-29" value="课程基本信息" style="edgeLabel;html=1;align=center;verticalAlign=middle;resizable=0;points=[];" vertex="1" connectable="0" parent="IuRhXJj4qnXTzcQBlqx_-28">
          <mxGeometry x="0.0542" y="1" relative="1" as="geometry">
            <mxPoint as="offset" />
          </mxGeometry>
        </mxCell>
        <mxCell id="IuRhXJj4qnXTzcQBlqx_-30" value="" style="endArrow=classic;html=1;rounded=0;entryX=0.5;entryY=0;entryDx=0;entryDy=0;exitX=0.5;exitY=1;exitDx=0;exitDy=0;" edge="1" parent="1" source="IuRhXJj4qnXTzcQBlqx_-8" target="IuRhXJj4qnXTzcQBlqx_-4">
          <mxGeometry width="50" height="50" relative="1" as="geometry">
            <mxPoint x="450" y="320" as="sourcePoint" />
            <mxPoint x="400" y="440" as="targetPoint" />
          </mxGeometry>
        </mxCell>
        <mxCell id="IuRhXJj4qnXTzcQBlqx_-31" value="教师基本信息" style="edgeLabel;html=1;align=center;verticalAlign=middle;resizable=0;points=[];" vertex="1" connectable="0" parent="IuRhXJj4qnXTzcQBlqx_-30">
          <mxGeometry x="0.0542" y="1" relative="1" as="geometry">
            <mxPoint as="offset" />
          </mxGeometry>
        </mxCell>
        <mxCell id="IuRhXJj4qnXTzcQBlqx_-32" value="" style="endArrow=classic;startArrow=classic;html=1;rounded=0;exitX=0.5;exitY=0;exitDx=0;exitDy=0;entryX=0.5;entryY=1;entryDx=0;entryDy=0;" edge="1" parent="1" source="IuRhXJj4qnXTzcQBlqx_-9" target="IuRhXJj4qnXTzcQBlqx_-3">
          <mxGeometry width="50" height="50" relative="1" as="geometry">
            <mxPoint x="300" y="420" as="sourcePoint" />
            <mxPoint x="350" y="370" as="targetPoint" />
          </mxGeometry>
        </mxCell>
        <mxCell id="IuRhXJj4qnXTzcQBlqx_-33" value="教学计划" style="edgeLabel;html=1;align=center;verticalAlign=middle;resizable=0;points=[];" vertex="1" connectable="0" parent="IuRhXJj4qnXTzcQBlqx_-32">
          <mxGeometry x="0.0333" relative="1" as="geometry">
            <mxPoint as="offset" />
          </mxGeometry>
        </mxCell>
        <mxCell id="IuRhXJj4qnXTzcQBlqx_-34" value="" style="endArrow=classic;startArrow=classic;html=1;rounded=0;exitX=0.5;exitY=0;exitDx=0;exitDy=0;entryX=0.5;entryY=1;entryDx=0;entryDy=0;" edge="1" parent="1">
          <mxGeometry width="50" height="50" relative="1" as="geometry">
            <mxPoint x="279.58" y="570" as="sourcePoint" />
            <mxPoint x="279.58" y="480" as="targetPoint" />
          </mxGeometry>
        </mxCell>
        <mxCell id="IuRhXJj4qnXTzcQBlqx_-35" value="学生信息" style="edgeLabel;html=1;align=center;verticalAlign=middle;resizable=0;points=[];" vertex="1" connectable="0" parent="IuRhXJj4qnXTzcQBlqx_-34">
          <mxGeometry x="0.0333" relative="1" as="geometry">
            <mxPoint as="offset" />
          </mxGeometry>
        </mxCell>
        <mxCell id="IuRhXJj4qnXTzcQBlqx_-36" value="" style="endArrow=classic;startArrow=classic;html=1;rounded=0;exitX=0.5;exitY=0;exitDx=0;exitDy=0;entryX=0.5;entryY=1;entryDx=0;entryDy=0;" edge="1" parent="1">
          <mxGeometry width="50" height="50" relative="1" as="geometry">
            <mxPoint x="389.58" y="570" as="sourcePoint" />
            <mxPoint x="389.58" y="480" as="targetPoint" />
          </mxGeometry>
        </mxCell>
        <mxCell id="IuRhXJj4qnXTzcQBlqx_-37" value="课程信息" style="edgeLabel;html=1;align=center;verticalAlign=middle;resizable=0;points=[];" vertex="1" connectable="0" parent="IuRhXJj4qnXTzcQBlqx_-36">
          <mxGeometry x="0.0333" relative="1" as="geometry">
            <mxPoint as="offset" />
          </mxGeometry>
        </mxCell>
        <mxCell id="IuRhXJj4qnXTzcQBlqx_-38" value="" style="endArrow=classic;startArrow=classic;html=1;rounded=0;exitX=0.5;exitY=0;exitDx=0;exitDy=0;entryX=0.5;entryY=1;entryDx=0;entryDy=0;" edge="1" parent="1">
          <mxGeometry width="50" height="50" relative="1" as="geometry">
            <mxPoint x="509.58" y="570" as="sourcePoint" />
            <mxPoint x="509.58" y="480" as="targetPoint" />
          </mxGeometry>
        </mxCell>
        <mxCell id="IuRhXJj4qnXTzcQBlqx_-39" value="教师信息" style="edgeLabel;html=1;align=center;verticalAlign=middle;resizable=0;points=[];" vertex="1" connectable="0" parent="IuRhXJj4qnXTzcQBlqx_-38">
          <mxGeometry x="0.0333" relative="1" as="geometry">
            <mxPoint as="offset" />
          </mxGeometry>
        </mxCell>
        <mxCell id="IuRhXJj4qnXTzcQBlqx_-40" value="" style="endArrow=classic;html=1;rounded=0;exitX=0;exitY=0;exitDx=0;exitDy=0;entryX=0.824;entryY=0.97;entryDx=0;entryDy=0;entryPerimeter=0;" edge="1" parent="1" source="IuRhXJj4qnXTzcQBlqx_-2" target="IuRhXJj4qnXTzcQBlqx_-8">
          <mxGeometry width="50" height="50" relative="1" as="geometry">
            <mxPoint x="580" y="420" as="sourcePoint" />
            <mxPoint x="600" y="310" as="targetPoint" />
          </mxGeometry>
        </mxCell>
        <mxCell id="IuRhXJj4qnXTzcQBlqx_-41" value="学生考试成绩汇总报表" style="edgeLabel;html=1;align=center;verticalAlign=middle;resizable=0;points=[];" vertex="1" connectable="0" parent="IuRhXJj4qnXTzcQBlqx_-40">
          <mxGeometry x="-0.0056" y="1" relative="1" as="geometry">
            <mxPoint x="5" y="17" as="offset" />
          </mxGeometry>
        </mxCell>
        <mxCell id="IuRhXJj4qnXTzcQBlqx_-42" value="班主任" style="html=1;dashed=0;whiteSpace=wrap;" vertex="1" parent="1">
          <mxGeometry x="560" y="340" width="80" height="30" as="geometry" />
        </mxCell>
        <mxCell id="IuRhXJj4qnXTzcQBlqx_-43" value="" style="endArrow=classic;html=1;rounded=0;exitX=0.405;exitY=0.978;exitDx=0;exitDy=0;exitPerimeter=0;entryX=0.166;entryY=-0.063;entryDx=0;entryDy=0;entryPerimeter=0;" edge="1" parent="1" source="IuRhXJj4qnXTzcQBlqx_-42" target="IuRhXJj4qnXTzcQBlqx_-2">
          <mxGeometry width="50" height="50" relative="1" as="geometry">
            <mxPoint x="580" y="420" as="sourcePoint" />
            <mxPoint x="630" y="370" as="targetPoint" />
          </mxGeometry>
        </mxCell>
        <mxCell id="IuRhXJj4qnXTzcQBlqx_-44" value="查&lt;div&gt;询&lt;/div&gt;&lt;div&gt;统&lt;/div&gt;&lt;div&gt;计&lt;/div&gt;&lt;div&gt;情&lt;/div&gt;&lt;div&gt;况&lt;/div&gt;" style="edgeLabel;html=1;align=center;verticalAlign=middle;resizable=0;points=[];" vertex="1" connectable="0" parent="IuRhXJj4qnXTzcQBlqx_-43">
          <mxGeometry x="-0.0138" relative="1" as="geometry">
            <mxPoint x="-8" y="34" as="offset" />
          </mxGeometry>
        </mxCell>
        <mxCell id="IuRhXJj4qnXTzcQBlqx_-45" value="" style="endArrow=classic;html=1;rounded=0;exitX=0.316;exitY=-0.063;exitDx=0;exitDy=0;exitPerimeter=0;entryX=0.5;entryY=1;entryDx=0;entryDy=0;" edge="1" parent="1" source="IuRhXJj4qnXTzcQBlqx_-2" target="IuRhXJj4qnXTzcQBlqx_-42">
          <mxGeometry width="50" height="50" relative="1" as="geometry">
            <mxPoint x="580" y="420" as="sourcePoint" />
            <mxPoint x="630" y="370" as="targetPoint" />
          </mxGeometry>
        </mxCell>
        <mxCell id="IuRhXJj4qnXTzcQBlqx_-46" value="考&lt;div&gt;试&lt;/div&gt;&lt;div&gt;通&lt;/div&gt;&lt;div&gt;过&lt;/div&gt;&lt;div&gt;情&lt;/div&gt;&lt;div&gt;况&lt;/div&gt;" style="edgeLabel;html=1;align=center;verticalAlign=middle;resizable=0;points=[];" vertex="1" connectable="0" parent="IuRhXJj4qnXTzcQBlqx_-45">
          <mxGeometry x="0.0202" y="-1" relative="1" as="geometry">
            <mxPoint x="13" y="13" as="offset" />
          </mxGeometry>
        </mxCell>
        <mxCell id="IuRhXJj4qnXTzcQBlqx_-47" value="" style="endArrow=classic;html=1;rounded=0;exitX=0.608;exitY=-0.013;exitDx=0;exitDy=0;exitPerimeter=0;entryX=0.25;entryY=1;entryDx=0;entryDy=0;" edge="1" parent="1" source="IuRhXJj4qnXTzcQBlqx_-2" target="IuRhXJj4qnXTzcQBlqx_-16">
          <mxGeometry width="50" height="50" relative="1" as="geometry">
            <mxPoint x="590" y="420" as="sourcePoint" />
            <mxPoint x="640" y="370" as="targetPoint" />
          </mxGeometry>
        </mxCell>
        <mxCell id="IuRhXJj4qnXTzcQBlqx_-49" value="考试&lt;div&gt;成绩表&lt;/div&gt;" style="edgeLabel;html=1;align=center;verticalAlign=middle;resizable=0;points=[];" vertex="1" connectable="0" parent="IuRhXJj4qnXTzcQBlqx_-47">
          <mxGeometry x="0.0136" y="-2" relative="1" as="geometry">
            <mxPoint x="-7" as="offset" />
          </mxGeometry>
        </mxCell>
        <mxCell id="IuRhXJj4qnXTzcQBlqx_-48" value="" style="endArrow=classic;html=1;rounded=0;exitX=0.5;exitY=1;exitDx=0;exitDy=0;entryX=0.75;entryY=0;entryDx=0;entryDy=0;" edge="1" parent="1" source="IuRhXJj4qnXTzcQBlqx_-16" target="IuRhXJj4qnXTzcQBlqx_-2">
          <mxGeometry width="50" height="50" relative="1" as="geometry">
            <mxPoint x="651" y="439" as="sourcePoint" />
            <mxPoint x="680" y="420" as="targetPoint" />
          </mxGeometry>
        </mxCell>
        <mxCell id="IuRhXJj4qnXTzcQBlqx_-50" value="学生考&lt;div&gt;试成绩&lt;/div&gt;" style="edgeLabel;html=1;align=center;verticalAlign=middle;resizable=0;points=[];" vertex="1" connectable="0" parent="IuRhXJj4qnXTzcQBlqx_-48">
          <mxGeometry x="-0.1173" y="2" relative="1" as="geometry">
            <mxPoint x="4" y="12" as="offset" />
          </mxGeometry>
        </mxCell>
        <mxCell id="IuRhXJj4qnXTzcQBlqx_-51" value="" style="endArrow=classic;html=1;rounded=0;entryX=0.25;entryY=1;entryDx=0;entryDy=0;exitX=1;exitY=0;exitDx=0;exitDy=0;" edge="1" parent="1" source="IuRhXJj4qnXTzcQBlqx_-2" target="IuRhXJj4qnXTzcQBlqx_-17">
          <mxGeometry width="50" height="50" relative="1" as="geometry">
            <mxPoint x="725" y="430" as="sourcePoint" />
            <mxPoint x="775" y="380" as="targetPoint" />
          </mxGeometry>
        </mxCell>
        <mxCell id="IuRhXJj4qnXTzcQBlqx_-53" value="考试成绩" style="edgeLabel;html=1;align=center;verticalAlign=middle;resizable=0;points=[];" vertex="1" connectable="0" parent="IuRhXJj4qnXTzcQBlqx_-51">
          <mxGeometry x="0.0258" y="1" relative="1" as="geometry">
            <mxPoint as="offset" />
          </mxGeometry>
        </mxCell>
        <mxCell id="IuRhXJj4qnXTzcQBlqx_-52" value="成绩&lt;div&gt;查询条件&lt;/div&gt;" style="endArrow=classic;html=1;rounded=0;entryX=1;entryY=0.25;entryDx=0;entryDy=0;exitX=0.405;exitY=1.089;exitDx=0;exitDy=0;exitPerimeter=0;" edge="1" parent="1" source="IuRhXJj4qnXTzcQBlqx_-17" target="IuRhXJj4qnXTzcQBlqx_-2">
          <mxGeometry x="-0.0792" y="23" width="50" height="50" relative="1" as="geometry">
            <mxPoint x="722" y="439" as="sourcePoint" />
            <mxPoint x="750.3" y="430" as="targetPoint" />
            <mxPoint as="offset" />
          </mxGeometry>
        </mxCell>
        <mxCell id="IuRhXJj4qnXTzcQBlqx_-54" value="" style="endArrow=classic;html=1;rounded=0;exitX=0.5;exitY=1;exitDx=0;exitDy=0;entryX=0.5;entryY=0;entryDx=0;entryDy=0;" edge="1" parent="1" source="IuRhXJj4qnXTzcQBlqx_-2" target="IuRhXJj4qnXTzcQBlqx_-13">
          <mxGeometry width="50" height="50" relative="1" as="geometry">
            <mxPoint x="560" y="420" as="sourcePoint" />
            <mxPoint x="610" y="370" as="targetPoint" />
          </mxGeometry>
        </mxCell>
        <mxCell id="IuRhXJj4qnXTzcQBlqx_-55" value="考试成绩" style="edgeLabel;html=1;align=center;verticalAlign=middle;resizable=0;points=[];" vertex="1" connectable="0" parent="IuRhXJj4qnXTzcQBlqx_-54">
          <mxGeometry x="-0.0333" y="-1" relative="1" as="geometry">
            <mxPoint as="offset" />
          </mxGeometry>
        </mxCell>
        <mxCell id="IuRhXJj4qnXTzcQBlqx_-59" value="" style="endArrow=classic;html=1;rounded=0;exitX=1;exitY=0.5;exitDx=0;exitDy=0;entryX=0;entryY=0.5;entryDx=0;entryDy=0;" edge="1" parent="1" source="IuRhXJj4qnXTzcQBlqx_-8" target="IuRhXJj4qnXTzcQBlqx_-1">
          <mxGeometry width="50" height="50" relative="1" as="geometry">
            <mxPoint x="630" y="390" as="sourcePoint" />
            <mxPoint x="680" y="340" as="targetPoint" />
          </mxGeometry>
        </mxCell>
        <mxCell id="IuRhXJj4qnXTzcQBlqx_-60" value="各类编码对应关系" style="edgeLabel;html=1;align=center;verticalAlign=middle;resizable=0;points=[];" vertex="1" connectable="0" parent="IuRhXJj4qnXTzcQBlqx_-59">
          <mxGeometry x="0.0207" y="1" relative="1" as="geometry">
            <mxPoint as="offset" />
          </mxGeometry>
        </mxCell>
        <mxCell id="IuRhXJj4qnXTzcQBlqx_-62" value="" style="endArrow=classic;startArrow=classic;html=1;rounded=0;exitX=1;exitY=0.5;exitDx=0;exitDy=0;" edge="1" parent="1" source="IuRhXJj4qnXTzcQBlqx_-1" target="IuRhXJj4qnXTzcQBlqx_-14">
          <mxGeometry width="50" height="50" relative="1" as="geometry">
            <mxPoint x="630" y="390" as="sourcePoint" />
            <mxPoint x="680" y="340" as="targetPoint" />
          </mxGeometry>
        </mxCell>
        <mxCell id="IuRhXJj4qnXTzcQBlqx_-63" value="编码" style="edgeLabel;html=1;align=center;verticalAlign=middle;resizable=0;points=[];" vertex="1" connectable="0" parent="IuRhXJj4qnXTzcQBlqx_-62">
          <mxGeometry x="0.0016" y="1" relative="1" as="geometry">
            <mxPoint as="offset" />
          </mxGeometry>
        </mxCell>
      </root>
    </mxGraphModel>
  </diagram>
</mxfile>
